<?xml version="1.0" encoding="UTF-8"?>
<svg id="Whistle_Assets" data-name="Whistle Assets" xmlns="http://www.w3.org/2000/svg" viewBox="0 0 760 520">
  <g id="Whistle_Mark_Dark" data-name="Whistle Mark Dark">
    <path d="M150.85,369.37c-4.73-9.73-9.94-24.98-13.51-37.16-7.42-25.37-10.22-55.19-7.75-82.23,1.32-14.45,3.06-28.71,5.71-41.7C157.63,99.11,242.04,18.48,359.25,18.6l360.91.37c3.28,0,11.25,1.74,13.46,3.45,2.94,2.28,4.91,11.93,4.26,15.94l-18.94,115.93c-.73,4.49-8,16.24-13.05,17.3l-98.91,20.74c-19.59,4.11-33.38,28.12-35.12,46.01-2.83,29.02-2.62,56.02-9.23,83.2-30.12,123.81-147.66,208.38-273.25,170.89-63.43-18.93-110.72-65.88-138.52-123.07ZM499.61,60.5l-.04,31.27,93.28.1.04-31.27-93.28-.1ZM480.39,261.61c0-72.1-58.45-130.54-130.54-130.54s-130.54,58.45-130.54,130.54,58.45,130.54,130.54,130.54,130.54-58.45,130.54-130.54Z" fill="#fcf5e8"/>
    <path d="M135.31,208.28c-2.65,12.99-4.4,27.25-5.71,41.7-4.22-3.99-18.03-7.72-24.04-7.86-28.59-.68-48.67,26.85-46.45,52.32,2.08,23.87,21.32,50.72,51.56,45.87,6.29-1.01,19.36-6.14,26.69-8.09,3.56,12.18,8.78,27.43,13.51,37.16l-19.01,6.79c-41.23,14.15-81.84-4.91-100.75-44.16-13.05-27.09-11.91-60.38,2.5-87.16,20.34-37.8,62.75-52.67,101.71-36.56Z" fill="#fb7f19"/>
    <circle cx="349.85" cy="261.61" r="130.54" fill="#062a61"/>
    <path d="M129.59,249.98c-2.47,27.05.33,56.86,7.75,82.23-7.33,1.96-20.39,7.08-26.69,8.09-30.23,4.85-49.48-22-51.56-45.87-2.22-25.47,17.86-53.01,46.45-52.32,6.01.14,19.82,3.87,24.04,7.86Z" fill="#fcf5e8"/>
    <rect x="530.6" y="29.55" width="31.27" height="93.28" transform="translate(469.43 622.34) rotate(-89.94)" fill="#fb7f19"/>
  </g>
</svg>